<svg version="1.1" id="Layer_1" xmlns="http://www.w3.org/2000/svg" xmlns:xlink="http://www.w3.org/1999/xlink" x="0px" y="0px"
	 width="100%" viewBox="0 0 654 577" enable-background="new 0 0 654 577" xml:space="preserve">
<path fill="#E4A11B" opacity="1.000000" stroke="none" 
	d="
M395.000000,578.000000 
	C263.333344,578.000000 132.166718,578.000000 1.000053,578.000000 
	C1.000035,385.666718 1.000035,193.333450 1.000018,1.000130 
	C218.999893,1.000087 436.999786,1.000087 654.999756,1.000043 
	C654.999878,193.333206 654.999878,385.666412 654.999939,577.999817 
	C568.500000,578.000000 482.000000,578.000000 395.000000,578.000000 
M118.458977,354.958557 
	C141.736176,331.403931 156.947891,303.974640 159.589951,270.195007 
	C158.119476,269.737976 157.058899,269.250946 155.950668,269.087982 
	C143.650345,267.279175 131.402695,267.641815 119.293427,270.464050 
	C84.951225,278.467987 60.678936,299.736359 42.735409,329.122833 
	C41.936832,330.430695 42.249008,333.324829 43.199184,334.654388 
	C54.908943,351.039429 69.135902,364.908569 85.596794,376.532898 
	C88.235298,378.396149 90.240623,378.492554 92.658524,376.466797 
	C101.060913,369.427124 109.520729,362.456024 118.458977,354.958557 
M35.731380,278.168976 
	C74.388420,255.455872 115.986191,250.701935 160.002151,258.391510 
	C160.002151,248.267746 159.765945,238.624191 160.118027,229.002151 
	C160.259491,225.136169 158.657822,223.853622 155.388687,222.946991 
	C137.194321,217.901199 118.657089,215.179306 99.809929,214.537857 
	C73.711517,213.649612 47.968800,216.006165 22.733267,223.056931 
	C19.663742,223.914566 18.622953,225.363388 18.675690,228.618759 
	C18.883499,241.446426 18.536530,254.285004 18.854815,267.108154 
	C19.020741,273.792999 20.143345,280.454163 20.911016,287.871796 
	C26.291668,284.368530 30.718590,281.486206 35.731380,278.168976 
M420.846252,232.668472 
	C404.158936,222.954559 387.117523,222.695724 370.653442,232.435562 
	C353.067535,242.839035 346.337433,266.060699 354.221985,285.557648 
	C361.546570,303.669952 381.021667,313.869720 401.287170,309.630005 
	C420.015045,305.711945 431.990540,294.056305 436.288971,275.495178 
	C440.214111,258.545807 435.928802,243.871109 420.846252,232.668472 
M209.226334,261.250366 
	C214.770981,265.180847 220.402405,268.995911 225.832352,273.078949 
	C230.051178,276.251312 234.774139,279.170532 237.938385,283.239990 
	C244.256866,291.366058 239.928864,302.557617 230.203934,304.895996 
	C219.091537,307.567932 210.634048,301.772095 209.140747,290.446259 
	C208.970154,289.152496 208.890839,287.846680 208.706543,285.876801 
	C207.123627,286.326660 205.371048,286.279785 204.633774,287.121857 
	C199.449158,293.043243 201.767670,303.817841 208.946503,307.161804 
	C216.606491,310.729858 224.761139,311.366272 232.864655,309.474121 
	C242.224289,307.288727 249.179657,302.084442 251.144821,291.939178 
	C253.087418,281.910492 249.114853,274.354736 241.086105,268.739197 
	C237.006577,265.885834 232.444489,263.723999 228.352844,260.885834 
	C224.560623,258.255402 220.553864,255.605438 217.623840,252.134796 
	C212.731415,246.339722 213.986420,238.437653 219.573761,235.154404 
	C230.038193,229.005280 241.132812,234.751251 242.023239,246.795792 
	C242.106430,247.920959 242.034317,249.057587 242.034317,251.766571 
	C244.259842,250.334915 246.374741,249.729980 246.605865,248.701645 
	C247.982803,242.575348 248.924576,236.351242 250.262177,228.738785 
	C241.158569,228.241013 232.489731,226.621658 224.098892,227.540558 
	C205.144501,229.616318 197.935181,245.975540 209.226334,261.250366 
M570.218445,308.925781 
	C571.548218,308.891327 572.916077,309.029266 574.191101,308.747284 
	C574.797485,308.613129 575.543213,307.728638 575.643372,307.092377 
	C575.735107,306.509705 575.170044,305.361908 574.676514,305.219818 
	C569.356812,303.687988 568.070312,298.968628 566.386658,294.704681 
	C559.735901,277.861237 553.229553,260.960876 546.640076,244.093140 
	C544.671143,239.052872 542.605957,234.050186 540.713318,229.349274 
	C536.385437,229.114212 534.949585,231.271149 533.721436,234.381836 
	C525.545715,255.090683 517.170715,275.720825 508.900909,296.392700 
	C507.387573,300.175598 505.864960,303.788147 501.319153,304.945099 
	C500.625214,305.121704 499.983887,306.549347 499.869598,307.467041 
	C499.820923,307.857880 501.183136,308.834351 501.917206,308.848022 
	C507.907715,308.959564 513.906006,309.021881 519.888916,308.778168 
	C520.783569,308.741760 521.610107,307.034607 523.016846,305.502899 
	C518.841003,304.726044 515.961121,304.190277 512.635864,303.571686 
	C514.084900,299.751770 515.422485,296.205719 516.774597,292.665222 
	C520.876709,281.923828 520.879150,281.875458 532.356384,281.945282 
	C538.149414,281.980499 545.507996,280.127533 549.307251,282.957031 
	C553.374451,285.986053 554.088074,293.517914 556.265930,299.084259 
	C556.326477,299.239105 556.387939,299.393860 556.457031,299.544983 
	C557.564880,301.968414 557.049500,303.479553 554.402588,304.629761 
	C553.140076,305.178406 552.426941,306.991272 550.923035,308.930206 
	C558.034973,308.930206 563.663879,308.930206 570.218445,308.925781 
M588.987305,243.730118 
	C588.987305,260.560669 588.850098,277.393005 589.067993,294.220734 
	C589.136536,299.514587 587.930359,303.325073 582.375122,304.922089 
	C581.505127,305.172180 581.002991,306.701935 580.330750,307.640015 
	C581.176086,308.202332 582.025696,309.258057 582.866150,309.250854 
	C591.524414,309.176636 600.185364,309.023804 608.833313,308.625183 
	C610.040161,308.569550 611.180420,307.070282 612.351440,306.239319 
	C612.080750,305.771729 611.810059,305.304138 611.539368,304.836548 
	C607.629150,304.446564 603.718933,304.056549 599.918274,303.677490 
	C599.918274,294.120392 599.815430,284.956940 600.034302,275.801208 
	C600.065491,274.496918 601.593262,272.175049 602.536255,272.118347 
	C608.285278,271.772644 614.065369,271.945679 619.870972,271.945679 
	C620.056763,275.211365 620.203857,277.796570 620.370117,280.718384 
	C622.451416,280.623169 624.028809,280.550995 625.775024,280.471100 
	C625.775024,273.320099 625.775024,266.556396 625.775024,259.910400 
	C619.345459,258.458618 621.910095,264.425415 619.841858,266.631348 
	C613.322632,266.631348 606.762085,266.631348 599.915649,266.631348 
	C599.915649,260.129486 599.915710,253.981232 599.915710,247.832993 
	C599.915710,234.911026 599.915649,234.911011 612.987427,234.915573 
	C625.112427,234.919800 626.762817,236.424698 627.772766,248.355606 
	C627.798218,248.656281 628.062073,248.936752 628.622986,250.002121 
	C629.832825,249.355637 631.917786,248.907791 632.121948,248.025009 
	C633.517517,241.990509 634.518188,235.864716 635.601807,230.008163 
	C616.396606,230.008163 597.984558,230.008163 579.572449,230.008163 
	C579.374878,230.450256 579.177307,230.892334 578.979736,231.334427 
	C580.032532,232.169067 580.994934,233.553741 582.153625,233.744110 
	C587.451416,234.614517 589.660278,237.553101 588.987305,243.730118 
M296.740234,236.949295 
	C300.035034,236.758698 303.332825,236.366959 306.624023,236.416275 
	C315.517303,236.549484 317.494720,238.507233 318.694092,247.411392 
	C318.851288,248.578461 319.979156,249.614777 320.657440,250.711639 
	C321.617401,249.830780 323.204742,249.087082 323.432343,248.046097 
	C324.629272,242.571930 325.482635,237.022659 326.506134,231.210648 
	C303.863434,231.210648 281.617706,231.210648 258.865326,231.210648 
	C257.766571,237.512497 256.647583,243.930496 255.556030,250.191208 
	C259.902100,251.740753 260.538757,248.953934 261.411438,246.653442 
	C264.068756,239.648315 268.775208,235.795029 276.588104,236.344879 
	C279.203125,236.528915 281.842010,236.373962 284.579163,236.373962 
	C284.792664,237.656982 285.039764,238.452927 285.040802,239.249207 
	C285.066010,258.558258 285.035889,277.867401 285.092682,297.176331 
	C285.104309,301.127991 282.933411,303.091522 279.634033,304.663879 
	C278.344208,305.278564 277.620209,307.080566 276.283508,308.797943 
	C286.240936,308.797943 294.711517,308.885284 303.176514,308.706573 
	C304.490662,308.678833 305.779114,307.434418 307.079468,306.752655 
	C306.924072,306.248108 306.768707,305.743561 306.613342,305.238983 
	C303.075378,304.709290 299.537445,304.179565 296.115021,303.667145 
	C296.115021,281.551056 296.115021,259.625946 296.740234,236.949295 
M450.080170,249.522522 
	C450.080017,265.020294 449.996429,280.518829 450.132965,296.015411 
	C450.171570,300.392639 448.826599,303.305695 444.469299,304.826721 
	C443.297028,305.235931 442.636169,307.110138 441.290710,308.915405 
	C460.094513,308.915405 477.383270,308.915405 495.021240,308.915405 
	C496.663757,301.602692 498.245544,294.560455 499.814728,287.574341 
	C496.258575,286.094910 495.031006,287.738922 493.820404,290.369171 
	C491.054962,296.377716 488.748444,303.244873 480.589508,303.717682 
	C474.158295,304.090393 467.688232,303.792542 460.919830,303.792542 
	C460.919830,287.348541 460.899841,271.230621 460.927917,255.112762 
	C460.942841,246.547562 459.970856,237.847519 464.631348,230.007629 
	C456.572418,230.007629 449.045746,230.007629 441.519073,230.007629 
	C441.335693,230.434601 441.152344,230.861572 440.968964,231.288559 
	C441.886261,232.128082 442.723480,233.573318 443.734161,233.706985 
	C449.486237,234.467712 450.541260,238.141541 450.106232,243.037582 
	C449.944641,244.856293 450.080170,246.701416 450.080170,249.522522 
M282.684753,328.070038 
	C272.027496,335.556091 268.764923,347.703552 274.462433,358.684143 
	C279.623566,368.630981 292.049805,373.073730 303.351105,369.012695 
	C314.099731,365.150238 320.468872,353.157990 317.969727,341.487671 
	C314.932465,327.304504 298.187683,320.666260 282.684753,328.070038 
M549.619019,331.513123 
	C555.599792,331.760010 561.580627,332.006927 568.466248,332.291168 
	C568.646606,331.901520 569.442200,330.182922 570.926636,326.976135 
	C564.189148,326.223206 558.354431,324.862671 552.577637,325.075317 
	C541.072998,325.498749 532.468262,334.389191 531.429688,345.859680 
	C530.369812,357.566711 536.573303,367.168152 548.269287,369.352417 
	C554.766663,370.565765 561.756226,369.239441 568.511108,368.839996 
	C569.243958,368.796661 570.466125,367.318878 570.486938,366.482147 
	C570.651184,359.901794 570.578125,353.315521 570.578125,346.571411 
	C565.022034,346.571411 560.249817,346.571411 555.109619,346.571411 
	C555.109619,348.459106 555.109619,350.165741 555.109619,352.377533 
	C558.127625,352.377533 560.867004,352.377533 563.649597,352.377533 
	C563.649597,356.322906 563.649597,359.761963 563.649597,363.123322 
	C552.673340,366.547028 542.768921,362.812103 539.493225,354.176849 
	C536.076965,345.170959 539.945374,335.987946 549.619019,331.513123 
M616.307373,350.176941 
	C620.933777,350.176941 625.560242,350.176941 630.313049,350.176941 
	C630.313049,348.066345 630.313049,346.487335 630.313049,344.211060 
	C624.993591,344.211060 619.958862,344.211060 614.974976,344.211060 
	C614.974976,339.587097 614.974976,335.666199 614.974976,331.238403 
	C621.568420,331.238403 627.825562,331.238403 634.227112,331.238403 
	C634.227112,329.198090 634.227112,327.674530 634.227112,326.064331 
	C625.290466,326.064331 616.745544,326.064331 608.124512,326.064331 
	C608.124512,340.658783 608.124512,354.907623 608.124512,369.389832 
	C617.115540,369.389832 625.860352,369.389832 634.655273,369.389832 
	C634.655273,367.452606 634.655273,365.758789 634.655273,363.628326 
	C627.884521,363.628326 621.481018,363.628326 614.387390,363.628326 
	C614.717590,358.909515 615.014282,354.669922 616.307373,350.176941 
M497.259155,363.895660 
	C491.652954,363.895660 486.046753,363.895660 480.438354,363.895660 
	C480.438354,358.977203 480.438354,354.621033 480.438354,349.900879 
	C485.625122,349.900879 490.395538,349.900879 495.235352,349.900879 
	C495.235352,347.961487 495.235352,346.406647 495.235352,344.224121 
	C490.025635,344.224121 485.151306,344.224121 480.222778,344.224121 
	C480.222778,339.642395 480.222778,335.694580 480.222778,331.284302 
	C486.828156,331.284302 493.237091,331.284302 499.771667,331.284302 
	C499.771667,329.219238 499.771667,327.619324 499.771667,326.033234 
	C490.774353,326.033234 482.021057,326.033234 473.229614,326.033234 
	C473.229614,340.578491 473.229614,354.826660 473.229614,369.606720 
	C480.583618,369.606720 487.701691,369.606720 494.819794,369.606720 
	C496.446075,369.606720 498.072388,369.606720 501.161896,369.606720 
	C499.826843,367.039429 499.013519,365.475372 497.259155,363.895660 
M232.262421,331.781769 
	C234.208588,332.513947 236.154755,333.246124 238.396225,334.089417 
	C239.190536,331.958710 239.846817,330.198334 240.479752,328.500519 
	C227.304321,321.880798 212.532898,324.629242 205.827744,334.569244 
	C199.564651,343.854034 200.732910,357.156525 208.443329,364.351654 
	C216.762589,372.114990 232.115952,372.493347 241.151779,364.975006 
	C240.286087,363.528656 239.400513,362.049103 238.536346,360.605316 
	C236.222198,361.645721 234.453766,362.570709 232.596191,363.252960 
	C225.395782,365.897461 217.820374,364.320496 213.319550,359.326141 
	C208.637955,354.131165 207.616470,345.716858 210.885361,339.274811 
	C214.412033,332.324768 220.633255,329.960938 232.262421,331.781769 
M371.294403,363.871643 
	C367.219208,363.871643 363.144012,363.871643 358.673523,363.871643 
	C358.673523,350.924500 358.673523,338.679352 358.673523,326.078613 
	C356.233856,326.078613 354.215118,326.078613 352.106201,326.078613 
	C352.106201,340.628876 352.106201,354.874634 352.106201,369.379333 
	C361.066803,369.379333 369.795532,369.379333 378.902466,369.379333 
	C378.902466,367.589142 378.902466,365.901672 378.902466,363.871643 
	C376.521271,363.871643 374.375763,363.871643 371.294403,363.871643 
M421.615936,363.877441 
	C420.831024,362.391907 419.391632,360.917725 419.365631,359.419037 
	C419.172852,348.312469 419.261169,337.201019 419.261169,326.087524 
	C416.828583,326.087524 414.935608,326.087524 413.085510,326.087524 
	C413.085510,340.682648 413.085510,354.931519 413.085510,369.315491 
	C422.180450,369.315491 430.927216,369.315491 439.747559,369.315491 
	C439.747559,367.442261 439.747559,365.859436 439.747559,363.891174 
	C433.862183,363.891174 428.231476,363.891174 421.615936,363.877441 
M318.492828,309.878632 
	C322.074432,310.909393 325.461578,310.402649 326.876190,306.760040 
	C327.640076,304.793121 327.571808,301.319153 326.326813,300.060730 
	C324.828613,298.546387 321.496338,297.786377 319.284760,298.251892 
	C314.196838,299.322876 313.607361,305.103638 318.492828,309.878632 
z"/>
<path fill="#010100" opacity="1.000000" stroke="none" 
	d="
M118.208832,355.208710 
	C109.520729,362.456024 101.060913,369.427124 92.658524,376.466797 
	C90.240623,378.492554 88.235298,378.396149 85.596794,376.532898 
	C69.135902,364.908569 54.908943,351.039429 43.199184,334.654388 
	C42.249008,333.324829 41.936832,330.430695 42.735409,329.122833 
	C60.678936,299.736359 84.951225,278.467987 119.293427,270.464050 
	C131.402695,267.641815 143.650345,267.279175 155.950668,269.087982 
	C157.058899,269.250946 158.119476,269.737976 159.589951,270.195007 
	C156.947891,303.974640 141.736176,331.403931 118.208832,355.208710 
z"/>
<path fill="#010100" opacity="1.000000" stroke="none" 
	d="
M35.438446,278.386414 
	C30.718590,281.486206 26.291668,284.368530 20.911016,287.871796 
	C20.143345,280.454163 19.020741,273.792999 18.854815,267.108154 
	C18.536530,254.285004 18.883499,241.446426 18.675690,228.618759 
	C18.622953,225.363388 19.663742,223.914566 22.733267,223.056931 
	C47.968800,216.006165 73.711517,213.649612 99.809929,214.537857 
	C118.657089,215.179306 137.194321,217.901199 155.388687,222.946991 
	C158.657822,223.853622 160.259491,225.136169 160.118027,229.002151 
	C159.765945,238.624191 160.002151,248.267746 160.002151,258.391510 
	C115.986191,250.701935 74.388420,255.455872 35.438446,278.386414 
z"/>
<path fill="#FEFCF9" opacity="1.000000" stroke="none" 
	d="
M421.146973,232.865891 
	C435.928802,243.871109 440.214111,258.545807 436.288971,275.495178 
	C431.990540,294.056305 420.015045,305.711945 401.287170,309.630005 
	C381.021667,313.869720 361.546570,303.669952 354.221985,285.557648 
	C346.337433,266.060699 353.067535,242.839035 370.653442,232.435562 
	C387.117523,222.695724 404.158936,222.954559 421.146973,232.865891 
M367.209961,283.045441 
	C370.264282,287.557739 372.735474,292.638611 376.479370,296.478607 
	C389.072510,309.394958 407.917542,307.413422 418.130585,292.528870 
	C428.461700,277.472260 426.947296,254.576233 414.725586,241.048080 
	C400.032349,224.784286 375.536865,228.745468 366.813171,248.873764 
	C361.993286,259.994751 362.616730,271.187958 367.209961,283.045441 
z"/>
<path fill="#FEFBF8" opacity="1.000000" stroke="none" 
	d="
M208.997253,260.972839 
	C197.935181,245.975540 205.144501,229.616318 224.098892,227.540558 
	C232.489731,226.621658 241.158569,228.241013 250.262177,228.738785 
	C248.924576,236.351242 247.982803,242.575348 246.605865,248.701645 
	C246.374741,249.729980 244.259842,250.334915 242.034317,251.766571 
	C242.034317,249.057587 242.106430,247.920959 242.023239,246.795792 
	C241.132812,234.751251 230.038193,229.005280 219.573761,235.154404 
	C213.986420,238.437653 212.731415,246.339722 217.623840,252.134796 
	C220.553864,255.605438 224.560623,258.255402 228.352844,260.885834 
	C232.444489,263.723999 237.006577,265.885834 241.086105,268.739197 
	C249.114853,274.354736 253.087418,281.910492 251.144821,291.939178 
	C249.179657,302.084442 242.224289,307.288727 232.864655,309.474121 
	C224.761139,311.366272 216.606491,310.729858 208.946503,307.161804 
	C201.767670,303.817841 199.449158,293.043243 204.633774,287.121857 
	C205.371048,286.279785 207.123627,286.326660 208.706543,285.876801 
	C208.890839,287.846680 208.970154,289.152496 209.140747,290.446259 
	C210.634048,301.772095 219.091537,307.567932 230.203934,304.895996 
	C239.928864,302.557617 244.256866,291.366058 237.938385,283.239990 
	C234.774139,279.170532 230.051178,276.251312 225.832352,273.078949 
	C220.402405,268.995911 214.770981,265.180847 208.997253,260.972839 
z"/>
<path fill="#FEFAF6" opacity="1.000000" stroke="none" 
	d="
M569.755615,308.927979 
	C563.663879,308.930206 558.034973,308.930206 550.923035,308.930206 
	C552.426941,306.991272 553.140076,305.178406 554.402588,304.629761 
	C557.049500,303.479553 557.564880,301.968414 556.457031,299.544983 
	C556.387939,299.393860 556.326477,299.239105 556.265930,299.084259 
	C554.088074,293.517914 553.374451,285.986053 549.307251,282.957031 
	C545.507996,280.127533 538.149414,281.980499 532.356384,281.945282 
	C520.879150,281.875458 520.876709,281.923828 516.774597,292.665222 
	C515.422485,296.205719 514.084900,299.751770 512.635864,303.571686 
	C515.961121,304.190277 518.841003,304.726044 523.016846,305.502899 
	C521.610107,307.034607 520.783569,308.741760 519.888916,308.778168 
	C513.906006,309.021881 507.907715,308.959564 501.917206,308.848022 
	C501.183136,308.834351 499.820923,307.857880 499.869598,307.467041 
	C499.983887,306.549347 500.625214,305.121704 501.319153,304.945099 
	C505.864960,303.788147 507.387573,300.175598 508.900909,296.392700 
	C517.170715,275.720825 525.545715,255.090683 533.721436,234.381836 
	C534.949585,231.271149 536.385437,229.114212 540.713318,229.349274 
	C542.605957,234.050186 544.671143,239.052872 546.640076,244.093140 
	C553.229553,260.960876 559.735901,277.861237 566.386658,294.704681 
	C568.070312,298.968628 569.356812,303.687988 574.676514,305.219818 
	C575.170044,305.361908 575.735107,306.509705 575.643372,307.092377 
	C575.543213,307.728638 574.797485,308.613129 574.191101,308.747284 
	C572.916077,309.029266 571.548218,308.891327 569.755615,308.927979 
M526.785278,266.304810 
	C525.594055,269.442474 524.402771,272.580109 523.177124,275.808472 
	C531.548645,275.808472 539.203552,275.808472 547.425415,275.808472 
	C543.373718,265.032074 539.545593,254.850281 535.412170,243.856461 
	C532.371399,251.689362 529.678955,258.625183 526.785278,266.304810 
z"/>
<path fill="#FEFCF9" opacity="1.000000" stroke="none" 
	d="
M588.987305,243.264832 
	C589.660278,237.553101 587.451416,234.614517 582.153625,233.744110 
	C580.994934,233.553741 580.032532,232.169067 578.979736,231.334427 
	C579.177307,230.892334 579.374878,230.450256 579.572449,230.008163 
	C597.984558,230.008163 616.396606,230.008163 635.601807,230.008163 
	C634.518188,235.864716 633.517517,241.990509 632.121948,248.025009 
	C631.917786,248.907791 629.832825,249.355637 628.622986,250.002121 
	C628.062073,248.936752 627.798218,248.656281 627.772766,248.355606 
	C626.762817,236.424698 625.112427,234.919800 612.987427,234.915573 
	C599.915649,234.911011 599.915710,234.911026 599.915710,247.832993 
	C599.915710,253.981232 599.915649,260.129486 599.915649,266.631348 
	C606.762085,266.631348 613.322632,266.631348 619.841858,266.631348 
	C621.910095,264.425415 619.345459,258.458618 625.775024,259.910400 
	C625.775024,266.556396 625.775024,273.320099 625.775024,280.471100 
	C624.028809,280.550995 622.451416,280.623169 620.370117,280.718384 
	C620.203857,277.796570 620.056763,275.211365 619.870972,271.945679 
	C614.065369,271.945679 608.285278,271.772644 602.536255,272.118347 
	C601.593262,272.175049 600.065491,274.496918 600.034302,275.801208 
	C599.815430,284.956940 599.918274,294.120392 599.918274,303.677490 
	C603.718933,304.056549 607.629150,304.446564 611.539368,304.836548 
	C611.810059,305.304138 612.080750,305.771729 612.351440,306.239319 
	C611.180420,307.070282 610.040161,308.569550 608.833313,308.625183 
	C600.185364,309.023804 591.524414,309.176636 582.866150,309.250854 
	C582.025696,309.258057 581.176086,308.202332 580.330750,307.640015 
	C581.002991,306.701935 581.505127,305.172180 582.375122,304.922089 
	C587.930359,303.325073 589.136536,299.514587 589.067993,294.220734 
	C588.850098,277.393005 588.987305,260.560669 588.987305,243.264832 
z"/>
<path fill="#FDFAF5" opacity="1.000000" stroke="none" 
	d="
M296.427612,237.325058 
	C296.115021,259.625946 296.115021,281.551056 296.115021,303.667145 
	C299.537445,304.179565 303.075378,304.709290 306.613342,305.238983 
	C306.768707,305.743561 306.924072,306.248108 307.079468,306.752655 
	C305.779114,307.434418 304.490662,308.678833 303.176514,308.706573 
	C294.711517,308.885284 286.240936,308.797943 276.283508,308.797943 
	C277.620209,307.080566 278.344208,305.278564 279.634033,304.663879 
	C282.933411,303.091522 285.104309,301.127991 285.092682,297.176331 
	C285.035889,277.867401 285.066010,258.558258 285.040802,239.249207 
	C285.039764,238.452927 284.792664,237.656982 284.579163,236.373962 
	C281.842010,236.373962 279.203125,236.528915 276.588104,236.344879 
	C268.775208,235.795029 264.068756,239.648315 261.411438,246.653442 
	C260.538757,248.953934 259.902100,251.740753 255.556030,250.191208 
	C256.647583,243.930496 257.766571,237.512497 258.865326,231.210648 
	C281.617706,231.210648 303.863434,231.210648 326.506134,231.210648 
	C325.482635,237.022659 324.629272,242.571930 323.432343,248.046097 
	C323.204742,249.087082 321.617401,249.830780 320.657440,250.711639 
	C319.979156,249.614777 318.851288,248.578461 318.694092,247.411392 
	C317.494720,238.507233 315.517303,236.549484 306.624023,236.416275 
	C303.332825,236.366959 300.035034,236.758698 296.427612,237.325058 
z"/>
<path fill="#FEFBF8" opacity="1.000000" stroke="none" 
	d="
M450.080170,249.028503 
	C450.080170,246.701416 449.944641,244.856293 450.106232,243.037582 
	C450.541260,238.141541 449.486237,234.467712 443.734161,233.706985 
	C442.723480,233.573318 441.886261,232.128082 440.968964,231.288559 
	C441.152344,230.861572 441.335693,230.434601 441.519073,230.007629 
	C449.045746,230.007629 456.572418,230.007629 464.631348,230.007629 
	C459.970856,237.847519 460.942841,246.547562 460.927917,255.112762 
	C460.899841,271.230621 460.919830,287.348541 460.919830,303.792542 
	C467.688232,303.792542 474.158295,304.090393 480.589508,303.717682 
	C488.748444,303.244873 491.054962,296.377716 493.820404,290.369171 
	C495.031006,287.738922 496.258575,286.094910 499.814728,287.574341 
	C498.245544,294.560455 496.663757,301.602692 495.021240,308.915405 
	C477.383270,308.915405 460.094513,308.915405 441.290710,308.915405 
	C442.636169,307.110138 443.297028,305.235931 444.469299,304.826721 
	C448.826599,303.305695 450.171570,300.392639 450.132965,296.015411 
	C449.996429,280.518829 450.080017,265.020294 450.080170,249.028503 
z"/>
<path fill="#060401" opacity="1.000000" stroke="none" 
	d="
M283.025330,327.919769 
	C298.187683,320.666260 314.932465,327.304504 317.969727,341.487671 
	C320.468872,353.157990 314.099731,365.150238 303.351105,369.012695 
	C292.049805,373.073730 279.623566,368.630981 274.462433,358.684143 
	C268.764923,347.703552 272.027496,335.556091 283.025330,327.919769 
M296.189270,364.688965 
	C297.489227,364.399414 298.820282,364.207428 300.083984,363.804260 
	C307.460022,361.451111 312.063324,353.574554 311.029205,345.162292 
	C309.986572,336.680237 304.243561,331.152405 295.935120,330.633820 
	C288.110413,330.145386 281.447144,335.091003 279.499420,343.108643 
	C277.131897,352.854370 283.073914,364.637695 296.189270,364.688965 
z"/>
<path fill="#0A0701" opacity="1.000000" stroke="none" 
	d="
M549.254211,331.692566 
	C539.945374,335.987946 536.076965,345.170959 539.493225,354.176849 
	C542.768921,362.812103 552.673340,366.547028 563.649597,363.123322 
	C563.649597,359.761963 563.649597,356.322906 563.649597,352.377533 
	C560.867004,352.377533 558.127625,352.377533 555.109619,352.377533 
	C555.109619,350.165741 555.109619,348.459106 555.109619,346.571411 
	C560.249817,346.571411 565.022034,346.571411 570.578125,346.571411 
	C570.578125,353.315521 570.651184,359.901794 570.486938,366.482147 
	C570.466125,367.318878 569.243958,368.796661 568.511108,368.839996 
	C561.756226,369.239441 554.766663,370.565765 548.269287,369.352417 
	C536.573303,367.168152 530.369812,357.566711 531.429688,345.859680 
	C532.468262,334.389191 541.072998,325.498749 552.577637,325.075317 
	C558.354431,324.862671 564.189148,326.223206 570.926636,326.976135 
	C569.442200,330.182922 568.646606,331.901520 568.466248,332.291168 
	C561.580627,332.006927 555.599792,331.760010 549.254211,331.692566 
z"/>
<path fill="#0D0902" opacity="1.000000" stroke="none" 
	d="
M615.809204,350.303650 
	C615.014282,354.669922 614.717590,358.909515 614.387390,363.628326 
	C621.481018,363.628326 627.884521,363.628326 634.655273,363.628326 
	C634.655273,365.758789 634.655273,367.452606 634.655273,369.389832 
	C625.860352,369.389832 617.115540,369.389832 608.124512,369.389832 
	C608.124512,354.907623 608.124512,340.658783 608.124512,326.064331 
	C616.745544,326.064331 625.290466,326.064331 634.227112,326.064331 
	C634.227112,327.674530 634.227112,329.198090 634.227112,331.238403 
	C627.825562,331.238403 621.568420,331.238403 614.974976,331.238403 
	C614.974976,335.666199 614.974976,339.587097 614.974976,344.211060 
	C619.958862,344.211060 624.993591,344.211060 630.313049,344.211060 
	C630.313049,346.487335 630.313049,348.066345 630.313049,350.176941 
	C625.560242,350.176941 620.933777,350.176941 615.809204,350.303650 
z"/>
<path fill="#080601" opacity="1.000000" stroke="none" 
	d="
M497.729675,363.903503 
	C499.013519,365.475372 499.826843,367.039429 501.161896,369.606720 
	C498.072388,369.606720 496.446075,369.606720 494.819794,369.606720 
	C487.701691,369.606720 480.583618,369.606720 473.229614,369.606720 
	C473.229614,354.826660 473.229614,340.578491 473.229614,326.033234 
	C482.021057,326.033234 490.774353,326.033234 499.771667,326.033234 
	C499.771667,327.619324 499.771667,329.219238 499.771667,331.284302 
	C493.237091,331.284302 486.828156,331.284302 480.222778,331.284302 
	C480.222778,335.694580 480.222778,339.642395 480.222778,344.224121 
	C485.151306,344.224121 490.025635,344.224121 495.235352,344.224121 
	C495.235352,346.406647 495.235352,347.961487 495.235352,349.900879 
	C490.395538,349.900879 485.625122,349.900879 480.438354,349.900879 
	C480.438354,354.621033 480.438354,358.977203 480.438354,363.895660 
	C486.046753,363.895660 491.652954,363.895660 497.729675,363.903503 
z"/>
<path fill="#070501" opacity="1.000000" stroke="none" 
	d="
M231.879547,331.612549 
	C220.633255,329.960938 214.412033,332.324768 210.885361,339.274811 
	C207.616470,345.716858 208.637955,354.131165 213.319550,359.326141 
	C217.820374,364.320496 225.395782,365.897461 232.596191,363.252960 
	C234.453766,362.570709 236.222198,361.645721 238.536346,360.605316 
	C239.400513,362.049103 240.286087,363.528656 241.151779,364.975006 
	C232.115952,372.493347 216.762589,372.114990 208.443329,364.351654 
	C200.732910,357.156525 199.564651,343.854034 205.827744,334.569244 
	C212.532898,324.629242 227.304321,321.880798 240.479752,328.500519 
	C239.846817,330.198334 239.190536,331.958710 238.396225,334.089417 
	C236.154755,333.246124 234.208588,332.513947 231.879547,331.612549 
z"/>
<path fill="#100B02" opacity="1.000000" stroke="none" 
	d="
M371.762329,363.871643 
	C374.375763,363.871643 376.521271,363.871643 378.902466,363.871643 
	C378.902466,365.901672 378.902466,367.589142 378.902466,369.379333 
	C369.795532,369.379333 361.066803,369.379333 352.106201,369.379333 
	C352.106201,354.874634 352.106201,340.628876 352.106201,326.078613 
	C354.215118,326.078613 356.233856,326.078613 358.673523,326.078613 
	C358.673523,338.679352 358.673523,350.924500 358.673523,363.871643 
	C363.144012,363.871643 367.219208,363.871643 371.762329,363.871643 
z"/>
<path fill="#070501" opacity="1.000000" stroke="none" 
	d="
M422.108337,363.884308 
	C428.231476,363.891174 433.862183,363.891174 439.747559,363.891174 
	C439.747559,365.859436 439.747559,367.442261 439.747559,369.315491 
	C430.927216,369.315491 422.180450,369.315491 413.085510,369.315491 
	C413.085510,354.931519 413.085510,340.682648 413.085510,326.087524 
	C414.935608,326.087524 416.828583,326.087524 419.261169,326.087524 
	C419.261169,337.201019 419.172852,348.312469 419.365631,359.419037 
	C419.391632,360.917725 420.831024,362.391907 422.108337,363.884308 
z"/>
<path fill="#FEFBF7" opacity="1.000000" stroke="none" 
	d="
M318.158386,309.714905 
	C313.607361,305.103638 314.196838,299.322876 319.284760,298.251892 
	C321.496338,297.786377 324.828613,298.546387 326.326813,300.060730 
	C327.571808,301.319153 327.640076,304.793121 326.876190,306.760040 
	C325.461578,310.402649 322.074432,310.909393 318.158386,309.714905 
z"/>
<path fill="#E4A11C" opacity="1.000000" stroke="none" 
	d="
M367.078125,282.682739 
	C362.616730,271.187958 361.993286,259.994751 366.813171,248.873764 
	C375.536865,228.745468 400.032349,224.784286 414.725586,241.048080 
	C426.947296,254.576233 428.461700,277.472260 418.130585,292.528870 
	C407.917542,307.413422 389.072510,309.394958 376.479370,296.478607 
	C372.735474,292.638611 370.264282,287.557739 367.078125,282.682739 
z"/>
<path fill="#E4A21F" opacity="1.000000" stroke="none" 
	d="
M526.885864,265.932892 
	C529.678955,258.625183 532.371399,251.689362 535.412170,243.856461 
	C539.545593,254.850281 543.373718,265.032074 547.425415,275.808472 
	C539.203552,275.808472 531.548645,275.808472 523.177124,275.808472 
	C524.402771,272.580109 525.594055,269.442474 526.885864,265.932892 
z"/>
<path fill="#E09E1B" opacity="1.000000" stroke="none" 
	d="
M295.790894,364.715057 
	C283.073914,364.637695 277.131897,352.854370 279.499420,343.108643 
	C281.447144,335.091003 288.110413,330.145386 295.935120,330.633820 
	C304.243561,331.152405 309.986572,336.680237 311.029205,345.162292 
	C312.063324,353.574554 307.460022,361.451111 300.083984,363.804260 
	C298.820282,364.207428 297.489227,364.399414 295.790894,364.715057 
z"/>
</svg>